<svg width="126" height="37" viewBox="0 0 126 37" fill="none" xmlns="http://www.w3.org/2000/svg">
  <path
    d="M74.8593 9.06952C75.7638 9.95304 76.216 11.2566 76.216 12.9802C76.216 14.7038 75.7638 16.0146 74.8593 16.9126C73.9694 17.7961 72.7075 18.2379 71.0736 18.2379H68.0756V23.1914H65.0339V7.72252H71.0736C72.7075 7.72252 73.9694 8.17152 74.8593 9.06952ZM73.1743 12.9802C73.1743 11.2711 72.423 10.4165 70.9204 10.4165H68.0756V15.5221H70.9204C71.6498 15.5221 72.2042 15.3266 72.5835 14.9355C72.9774 14.5445 73.1743 13.8927 73.1743 12.9802Z"
    fill="white" />
  <path
    d="M90.3507 23.1914H87.309V16.9343H81.5976V23.1914H78.5559V7.72252H81.5976V14.262H87.309V7.72252H90.3507V23.1914Z"
    fill="white" />
  <path d="M96.7968 23.1914H93.7551V7.72252H96.7968V23.1914Z" fill="white" />
  <path
    d="M110.926 18.6289C110.926 20.0918 110.386 21.2433 109.307 22.0833C108.227 22.9089 106.849 23.3217 105.171 23.3217C103.843 23.3217 102.56 22.9596 101.32 22.2354C100.707 21.8588 100.204 21.3302 99.8097 20.6494C99.4158 19.9542 99.2189 19.1648 99.2189 18.2813L101.976 18.1509C101.976 18.9331 102.312 19.5414 102.983 19.9759C103.654 20.4104 104.398 20.6277 105.215 20.6277C107.038 20.6277 107.95 19.9904 107.95 18.7158C107.95 17.673 107.33 17.0574 106.09 16.8691L103.552 16.6084C102.282 16.4201 101.276 15.9711 100.532 15.2614C99.7879 14.5517 99.4158 13.5306 99.4158 12.1981C99.4158 10.8655 99.9483 9.76475 101.013 8.89572C102.078 8.02668 103.42 7.59216 105.04 7.59216C106.674 7.59216 107.987 8.00496 108.979 8.83054C109.971 9.64164 110.467 10.6917 110.467 11.9808L107.753 12.1111C107.505 10.851 106.652 10.221 105.193 10.221C104.303 10.221 103.603 10.4093 103.092 10.7859C102.596 11.1625 102.348 11.6115 102.348 12.1329C102.348 12.6398 102.53 13.0454 102.895 13.3495C103.26 13.6392 103.712 13.8203 104.252 13.8927L106.747 14.1534C109.533 14.53 110.926 16.0218 110.926 18.6289Z"
    fill="white" />
  <path
    d="M124.927 23.1914H121.886V16.9343H116.174V23.1914H113.132V7.72252H116.174V14.262H121.886V7.72252H124.927V23.1914Z"
    fill="white" />
  <path
    d="M70.9106 29.5452C70.9106 30.3039 70.7037 30.8862 70.2899 31.2924C69.8837 31.6985 69.3128 31.9016 68.5772 31.9016H67.4737C66.5694 31.9016 65.9257 31.7445 65.5426 31.4303C65.1671 31.1161 64.9793 30.5721 64.9793 29.7981V23.7174H68.4392C69.2209 23.7174 69.8071 23.9128 70.1979 24.3036C70.5964 24.6945 70.7956 25.2462 70.7956 25.9589C70.7956 26.3727 70.6883 26.7252 70.4738 27.0164C70.2669 27.3076 70.037 27.5145 69.7841 27.6371C70.5351 27.9896 70.9106 28.6256 70.9106 29.5452ZM68.3128 26.9129C68.9028 26.9129 69.1979 26.6179 69.1979 26.0278C69.1979 25.4378 68.9028 25.1427 68.3128 25.1427H66.5771V26.9129H68.3128ZM69.3128 29.4647C69.3128 29.0969 69.2477 28.821 69.1174 28.6371C68.9871 28.4455 68.7534 28.3498 68.4162 28.3498H66.5771V29.6372C66.5771 29.9513 66.6537 30.1697 66.807 30.2924C66.9679 30.415 67.2284 30.4763 67.5886 30.4763H68.4162C69.014 30.4763 69.3128 30.1391 69.3128 29.4647ZM80.511 23.7174V29.0969C80.511 29.9858 80.2083 30.687 79.6029 31.2004C79.0052 31.7139 78.2657 31.9706 77.3844 31.9706C76.5031 31.9706 75.7598 31.7139 75.1544 31.2004C74.5567 30.687 74.2579 29.9858 74.2579 29.0969V23.7174H75.8556V29.0394C75.8556 29.5452 75.9936 29.9245 76.2694 30.1774C76.553 30.4226 76.9246 30.5452 77.3844 30.5452C77.8442 30.5452 78.2159 30.4226 78.4994 30.1774C78.7829 29.9245 78.9247 29.5452 78.9247 29.0394V23.7174H80.511ZM89.6489 29.4877C89.6489 30.2617 89.3653 30.8709 88.7983 31.3154C88.2312 31.7522 87.507 31.9706 86.6258 31.9706C85.9284 31.9706 85.2541 31.779 84.6027 31.3958C84.2808 31.1966 84.0165 30.9169 83.8096 30.5567C83.6027 30.1889 83.4992 29.7713 83.4992 29.3038L84.9475 29.2348C84.9475 29.6487 85.1238 29.9705 85.4763 30.2004C85.8288 30.4303 86.2196 30.5452 86.6487 30.5452C87.6066 30.5452 88.0856 30.2081 88.0856 29.5337C88.0856 28.982 87.7599 28.6563 87.1085 28.5567L85.7752 28.4187C85.1085 28.3191 84.5797 28.0816 84.1889 27.7061C83.7981 27.3306 83.6027 26.7903 83.6027 26.0853C83.6027 25.3803 83.8824 24.7979 84.4418 24.3381C85.0012 23.8783 85.7062 23.6484 86.5568 23.6484C87.4151 23.6484 88.1047 23.8668 88.6258 24.3036C89.1469 24.7328 89.4075 25.2883 89.4075 25.9704L87.9821 26.0393C87.8519 25.3726 87.4036 25.0393 86.6373 25.0393C86.1698 25.0393 85.802 25.1389 85.5338 25.3382C85.2732 25.5374 85.1429 25.775 85.1429 26.0508C85.1429 26.319 85.2387 26.5336 85.4303 26.6945C85.6219 26.8478 85.8594 26.9436 86.143 26.9819L87.4534 27.1198C88.917 27.3191 89.6489 28.1084 89.6489 29.4877ZM98.1988 25.1427H96.0033V31.9016H94.4056V25.1427H92.2216V23.7174H98.1988V25.1427ZM106.789 31.9016H103.892C102.972 31.9016 102.325 31.7445 101.949 31.4303C101.582 31.1085 101.398 30.5452 101.398 29.7406V23.7174H106.789V25.1427H102.995V27.0624H105.651L105.536 28.4877H102.995V29.6257C102.995 29.9475 103.068 30.1697 103.214 30.2924C103.359 30.415 103.624 30.4763 104.007 30.4763H106.789V31.9016ZM116.507 31.9016H114.656L113.059 28.867H111.909V31.9016H110.311V25.4761C110.311 24.863 110.453 24.4186 110.737 24.1427C111.02 23.8592 111.495 23.7174 112.162 23.7174H113.518C114.331 23.7174 114.974 23.9665 115.45 24.4646C115.932 24.955 116.174 25.5795 116.174 26.3382C116.174 26.8899 116.028 27.3689 115.737 27.775C115.453 28.1735 115.101 28.4494 114.679 28.6026L116.507 31.9016ZM113.415 27.5336C113.752 27.5336 114.028 27.4187 114.243 27.1888C114.465 26.9512 114.576 26.66 114.576 26.3152C114.576 25.9627 114.469 25.6792 114.254 25.4646C114.047 25.25 113.767 25.1427 113.415 25.1427H112.622C112.147 25.1427 111.909 25.3841 111.909 25.8669V27.5336H113.415ZM125.304 29.4877C125.304 30.2617 125.02 30.8709 124.453 31.3154C123.886 31.7522 123.162 31.9706 122.281 31.9706C121.583 31.9706 120.909 31.779 120.258 31.3958C119.936 31.1966 119.671 30.9169 119.465 30.5567C119.258 30.1889 119.154 29.7713 119.154 29.3038L120.603 29.2348C120.603 29.6487 120.779 29.9705 121.131 30.2004C121.484 30.4303 121.875 30.5452 122.304 30.5452C123.262 30.5452 123.741 30.2081 123.741 29.5337C123.741 28.982 123.415 28.6563 122.764 28.5567L121.43 28.4187C120.763 28.3191 120.235 28.0816 119.844 27.7061C119.453 27.3306 119.258 26.7903 119.258 26.0853C119.258 25.3803 119.537 24.7979 120.097 24.3381C120.656 23.8783 121.361 23.6484 122.212 23.6484C123.07 23.6484 123.76 23.8668 124.281 24.3036C124.802 24.7328 125.062 25.2883 125.062 25.9704L123.637 26.0393C123.507 25.3726 123.059 25.0393 122.292 25.0393C121.825 25.0393 121.457 25.1389 121.189 25.3382C120.928 25.5374 120.798 25.775 120.798 26.0508C120.798 26.319 120.894 26.5336 121.085 26.6945C121.277 26.8478 121.514 26.9436 121.798 26.9819L123.108 27.1198C124.572 27.3191 125.304 28.1084 125.304 29.4877Z"
    fill="white" />
  <path fill-rule="evenodd" clip-rule="evenodd"
    d="M7.87549 28.8169C8.29188 14.1734 19.3554 4.56714 31.1552 4.56714C42.9672 4.56714 54.0414 15.0684 54.4361 28.9097C58.0615 29.6106 60.7993 32.8012 60.7993 36.6313H0.906006C0.906006 32.5904 3.95347 29.2613 7.87549 28.8169Z"
    fill="white" />
  <rect x="24.8022" y="1.23987" width="11.4947" height="29.0392" rx="2.11744" fill="white"
    stroke="#054232" stroke-width="1.81495" />
</svg>